<?xml version="1.0" standalone="no"?>
<!DOCTYPE svg PUBLIC "-//W3C//DTD SVG 20010904//EN"
 "http://www.w3.org/TR/2001/REC-SVG-20010904/DTD/svg10.dtd">
<svg version="1.0" xmlns="http://www.w3.org/2000/svg"
 width="400.000000pt" height="400.000000pt" viewBox="0 0 400.000000 400.000000"
 preserveAspectRatio="xMidYMid meet">
<metadata>
Created by potrace 1.11, written by Peter Selinger 2001-2013
</metadata>
<g transform="translate(0.000000,400.000000) scale(0.100000,-0.100000)"
fill="#000000" stroke="none">
<path d="M0 2000 l0 -2000 2000 0 2000 0 0 2000 0 2000 -2000 0 -2000 0 0
-2000z m312 1246 c8 -7 22 -40 32 -72 11 -33 24 -72 31 -89 14 -35 43 -117 55
-160 12 -40 39 -122 54 -165 26 -69 38 -106 51 -150 16 -54 32 -98 57 -162 10
-26 18 -54 18 -63 0 -9 6 -29 14 -43 16 -32 44 -113 57 -165 5 -21 13 -45 18
-55 12 -21 39 -103 52 -157 6 -21 14 -44 18 -50 4 -5 13 -28 19 -50 5 -22 16
-56 23 -75 29 -83 57 -166 95 -285 15 -44 32 -93 38 -110 20 -48 47 -127 57
-168 5 -21 13 -45 18 -55 12 -22 40 -106 52 -160 6 -24 16 -42 24 -42 18 0 45
39 45 65 1 11 9 38 20 60 11 22 19 48 20 58 0 11 6 31 14 45 13 27 40 101 56
157 5 17 21 62 35 100 15 39 30 84 35 100 15 53 43 129 56 157 8 14 14 34 14
45 1 10 9 36 20 58 11 22 19 48 20 58 0 11 6 31 14 45 13 27 40 101 56 157 5
17 21 62 35 100 15 39 31 86 35 106 5 19 16 49 25 65 8 16 15 38 15 49 0 11 7
29 15 39 8 11 15 29 15 40 0 12 7 34 15 50 9 16 20 46 25 65 4 20 20 68 35
106 14 39 30 84 35 100 5 17 21 62 35 100 15 39 31 86 35 106 5 19 16 49 25
65 8 16 15 37 15 47 0 11 6 31 14 45 8 15 17 40 21 55 7 33 37 47 99 47 78 0
106 -10 112 -39 3 -14 11 -39 18 -56 15 -36 44 -118 56 -160 5 -16 20 -61 35
-100 14 -38 31 -88 36 -110 6 -21 14 -44 18 -50 5 -5 12 -26 16 -45 4 -19 11
-41 16 -50 9 -15 55 -149 105 -305 14 -44 32 -93 40 -110 7 -16 16 -43 20 -60
4 -16 10 -35 15 -40 4 -6 12 -29 18 -50 5 -22 22 -71 36 -110 15 -38 30 -83
35 -100 5 -16 21 -61 35 -100 15 -38 31 -88 36 -110 6 -21 14 -44 19 -50 5 -6
13 -29 19 -50 5 -22 21 -71 36 -110 14 -38 30 -83 35 -100 16 -56 43 -130 56
-157 8 -14 14 -34 14 -45 1 -10 9 -36 20 -58 11 -22 19 -49 20 -60 0 -26 27
-65 45 -65 8 0 18 18 24 42 12 54 40 138 52 160 5 10 13 34 18 55 5 21 22 70
36 108 15 39 31 88 36 110 6 21 14 44 18 50 4 5 13 28 19 50 15 57 42 135 58
172 8 17 14 39 14 48 0 9 6 29 14 43 16 32 44 113 57 165 5 21 13 45 18 55 9
16 33 86 51 147 11 38 40 121 55 160 15 36 43 119 55 160 14 49 41 128 51 150
15 36 80 229 90 270 6 21 14 44 19 50 5 6 13 29 19 50 19 78 73 220 89 233 16
12 118 17 146 6 21 -8 20 -45 -2 -102 -25 -61 -40 -107 -57 -162 -15 -51 -32
-101 -50 -145 -7 -17 -16 -46 -20 -65 -4 -19 -11 -40 -16 -45 -4 -6 -12 -29
-18 -50 -12 -48 -40 -133 -53 -159 -6 -10 -16 -39 -23 -65 -12 -43 -19 -64
-51 -151 -15 -42 -42 -124 -54 -165 -17 -56 -42 -130 -55 -160 -7 -16 -24 -66
-39 -110 -38 -119 -66 -202 -95 -285 -7 -19 -18 -53 -23 -75 -6 -22 -15 -45
-19 -50 -4 -6 -12 -29 -18 -50 -10 -42 -36 -120 -56 -170 -20 -48 -76 -216
-86 -260 -6 -21 -14 -44 -19 -50 -5 -6 -13 -29 -19 -50 -15 -61 -41 -136 -60
-175 -17 -34 -18 -35 -86 -38 -39 -2 -84 -1 -100 2 -32 6 -37 17 -75 141 -23
78 -43 132 -56 157 -8 14 -14 34 -14 45 0 10 -7 31 -15 47 -9 16 -20 46 -25
65 -4 20 -20 68 -35 106 -14 39 -30 84 -35 100 -17 57 -42 130 -56 162 -8 17
-14 39 -14 48 0 9 -6 29 -14 43 -13 25 -35 86 -56 157 -5 17 -21 62 -35 100
-15 39 -31 88 -36 110 -6 21 -14 44 -19 50 -5 6 -13 29 -19 50 -5 22 -22 72
-36 110 -15 39 -30 84 -35 100 -5 17 -21 62 -35 100 -15 39 -31 88 -36 110 -6
21 -14 44 -19 50 -5 6 -13 29 -19 50 -5 22 -21 72 -36 110 -14 39 -30 84 -35
100 -5 17 -15 48 -24 70 -8 22 -15 48 -16 57 0 10 -9 22 -19 27 -23 13 -36 0
-46 -49 -4 -19 -11 -41 -16 -50 -9 -16 -43 -112 -59 -165 -5 -16 -27 -82 -50
-145 -23 -63 -46 -131 -51 -150 -6 -19 -17 -49 -25 -67 -8 -17 -14 -36 -14
-43 0 -7 -6 -26 -14 -43 -14 -32 -39 -105 -56 -162 -5 -16 -20 -61 -35 -100
-41 -111 -95 -267 -106 -305 -6 -19 -17 -49 -25 -67 -8 -17 -14 -36 -14 -43 0
-7 -6 -26 -14 -43 -14 -32 -39 -105 -56 -162 -5 -16 -21 -61 -35 -100 -15 -38
-31 -86 -35 -106 -5 -19 -16 -49 -25 -65 -8 -16 -15 -37 -15 -47 0 -11 -6 -31
-14 -45 -13 -25 -34 -83 -56 -157 -26 -86 -50 -140 -67 -146 -10 -4 -52 -8
-94 -8 -89 -1 -102 8 -124 85 -15 55 -30 97 -57 166 -10 26 -18 53 -18 62 0 8
-6 27 -14 43 -13 28 -39 100 -56 158 -18 61 -42 131 -51 147 -5 10 -13 34 -18
55 -10 41 -36 119 -56 168 -20 48 -76 216 -86 260 -6 21 -14 44 -19 50 -5 6
-13 29 -19 50 -13 52 -40 132 -57 172 -8 17 -14 36 -14 43 0 7 -6 26 -14 43
-17 40 -44 120 -57 172 -6 21 -14 44 -19 50 -5 6 -13 29 -19 50 -14 57 -71
225 -87 258 -8 16 -14 35 -14 43 0 9 -8 36 -18 62 -25 64 -41 108 -57 162 -16
52 -31 97 -56 160 -9 25 -20 61 -24 82 -8 43 -4 45 97 47 44 1 71 -4 80 -13z"/>
</g>
</svg>
